<svg viewBox="0 0 1920 1080" xmlns="http://www.w3.org/2000/svg" preserveAspectRatio="xMidYMid slice">
  <defs>
    <filter id="hero-grain">
      <feTurbulence type="fractalNoise" baseFrequency="0.85" numOctaves="4" seed="8"/>
      <feColorMatrix type="matrix" values="0 0 0 0 0.06  0 0 0 0 0.06  0 0 0 0 0.06  0 0 0 0.22 0"/>
      <feComposite in2="SourceGraphic" operator="over"/>
    </filter>
    <filter id="blur-edge">
      <feGaussianBlur stdDeviation="0.5"/>
    </filter>
    <!-- gradient lumière naturelle -->
    <linearGradient id="sky" x1="0" y1="0" x2="0" y2="1">
      <stop offset="0%" stop-color="#B4B0AA"/>
      <stop offset="35%" stop-color="#C8C4BC"/>
      <stop offset="100%" stop-color="#D4D0C8"/>
    </linearGradient>
    <linearGradient id="facade-main" x1="0" y1="0" x2="0.3" y2="1">
      <stop offset="0%" stop-color="#A8A49C"/>
      <stop offset="60%" stop-color="#989490"/>
      <stop offset="100%" stop-color="#888480"/>
    </linearGradient>
    <linearGradient id="facade-shadow" x1="0" y1="0" x2="1" y2="0">
      <stop offset="0%" stop-color="rgba(0,0,0,0.45)"/>
      <stop offset="100%" stop-color="transparent"/>
    </linearGradient>
    <linearGradient id="ground-grad" x1="0" y1="0" x2="0" y2="1">
      <stop offset="0%" stop-color="#7A7670"/>
      <stop offset="100%" stop-color="#5A5652"/>
    </linearGradient>
    <radialGradient id="light-source" cx="30%" cy="8%" r="60%">
      <stop offset="0%" stop-color="rgba(240,236,228,0.35)"/>
      <stop offset="100%" stop-color="transparent"/>
    </radialGradient>
    <radialGradient id="vignette" cx="50%" cy="50%" r="75%">
      <stop offset="45%" stop-color="transparent"/>
      <stop offset="100%" stop-color="rgba(8,8,8,0.78)"/>
    </radialGradient>
  </defs>

  <!-- ciel -->
  <rect width="1920" height="1080" fill="url(#sky)"/>

  <!-- lumière source (soleil voilé) -->
  <rect width="1920" height="1080" fill="url(#light-source)"/>

  <!-- BÂTIMENT CENTRAL — Immense façade brutaliste -->
  <!-- Corps principal -->
  <rect x="260" y="80" width="1050" height="920" fill="url(#facade-main)"/>

  <!-- Joints de banchage horizontaux -->
  <rect x="260" y="128" width="1050" height="3" fill="rgba(0,0,0,0.18)"/>
  <rect x="260" y="208" width="1050" height="3" fill="rgba(0,0,0,0.16)"/>
  <rect x="260" y="288" width="1050" height="3" fill="rgba(0,0,0,0.14)"/>
  <rect x="260" y="368" width="1050" height="3" fill="rgba(0,0,0,0.18)"/>
  <rect x="260" y="448" width="1050" height="3" fill="rgba(0,0,0,0.16)"/>
  <rect x="260" y="528" width="1050" height="3" fill="rgba(0,0,0,0.14)"/>
  <rect x="260" y="608" width="1050" height="3" fill="rgba(0,0,0,0.18)"/>
  <rect x="260" y="688" width="1050" height="3" fill="rgba(0,0,0,0.16)"/>
  <rect x="260" y="768" width="1050" height="3" fill="rgba(0,0,0,0.14)"/>
  <rect x="260" y="848" width="1050" height="3" fill="rgba(0,0,0,0.18)"/>
  <rect x="260" y="928" width="1050" height="2" fill="rgba(0,0,0,0.2)"/>

  <!-- Joints verticaux structurels -->
  <rect x="440" y="80" width="2" height="920" fill="rgba(0,0,0,0.12)"/>
  <rect x="620" y="80" width="2" height="920" fill="rgba(0,0,0,0.1)"/>
  <rect x="800" y="80" width="3" height="920" fill="rgba(0,0,0,0.15)"/>
  <rect x="980" y="80" width="2" height="920" fill="rgba(0,0,0,0.1)"/>
  <rect x="1160" y="80" width="2" height="920" fill="rgba(0,0,0,0.12)"/>

  <!-- FENÊTRES RANGÉE 1 -->
  <rect x="300" y="148" width="110" height="72" fill="rgba(20,20,18,0.88)"/>
  <rect x="460" y="148" width="110" height="72" fill="rgba(22,22,20,0.82)"/>
  <rect x="620" y="148" width="110" height="72" fill="rgba(20,20,18,0.90)"/>
  <rect x="780" y="148" width="110" height="72" fill="rgba(18,18,16,0.86)"/>
  <rect x="940" y="148" width="110" height="72" fill="rgba(22,22,20,0.84)"/>
  <rect x="1100" y="148" width="110" height="72" fill="rgba(20,20,18,0.88)"/>
  <rect x="1220" y="148" width="52" height="72" fill="rgba(20,20,18,0.80)"/>

  <!-- reflets fenêtres R1 -->
  <rect x="300" y="148" width="110" height="8" fill="rgba(200,196,188,0.12)"/>
  <rect x="460" y="148" width="110" height="8" fill="rgba(200,196,188,0.10)"/>
  <rect x="620" y="148" width="110" height="8" fill="rgba(200,196,188,0.14)"/>
  <rect x="780" y="148" width="110" height="8" fill="rgba(200,196,188,0.08)"/>
  <rect x="940" y="148" width="110" height="8" fill="rgba(200,196,188,0.12)"/>
  <rect x="1100" y="148" width="110" height="8" fill="rgba(200,196,188,0.10)"/>

  <!-- RANGÉE 2 -->
  <rect x="300" y="228" width="110" height="72" fill="rgba(20,20,18,0.86)"/>
  <rect x="460" y="228" width="110" height="72" fill="rgba(18,18,16,0.92)"/>
  <rect x="620" y="228" width="110" height="72" fill="rgba(22,22,20,0.85)"/>
  <rect x="780" y="228" width="110" height="72" fill="rgba(20,20,18,0.88)"/>
  <rect x="940" y="228" width="110" height="72" fill="rgba(18,18,16,0.90)"/>
  <rect x="1100" y="228" width="110" height="72" fill="rgba(20,20,18,0.84)"/>
  <rect x="1220" y="228" width="52" height="72" fill="rgba(22,22,20,0.78)"/>

  <!-- RANGÉE 3 -->
  <rect x="300" y="308" width="110" height="72" fill="rgba(18,18,16,0.90)"/>
  <rect x="460" y="308" width="110" height="72" fill="rgba(20,20,18,0.85)"/>
  <rect x="620" y="308" width="110" height="72" fill="rgba(22,22,20,0.88)"/>
  <rect x="780" y="308" width="110" height="72" fill="rgba(18,18,16,0.86)"/>
  <rect x="940" y="308" width="110" height="72" fill="rgba(20,20,18,0.90)"/>
  <rect x="1100" y="308" width="110" height="72" fill="rgba(18,18,16,0.84)"/>
  <rect x="1220" y="308" width="52" height="72" fill="rgba(20,20,18,0.80)"/>

  <!-- RANGÉE 4 -->
  <rect x="300" y="388" width="110" height="72" fill="rgba(20,20,18,0.88)"/>
  <rect x="460" y="388" width="110" height="72" fill="rgba(22,22,20,0.86)"/>
  <rect x="620" y="388" width="110" height="72" fill="rgba(18,18,16,0.90)"/>
  <rect x="780" y="388" width="110" height="72" fill="rgba(20,20,18,0.84)"/>
  <rect x="940" y="388" width="110" height="72" fill="rgba(22,22,20,0.88)"/>
  <rect x="1100" y="388" width="110" height="72" fill="rgba(20,20,18,0.86)"/>
  <rect x="1220" y="388" width="52" height="72" fill="rgba(18,18,16,0.82)"/>

  <!-- RANGÉE 5 -->
  <rect x="300" y="468" width="110" height="72" fill="rgba(22,22,20,0.85)"/>
  <rect x="460" y="468" width="110" height="72" fill="rgba(18,18,16,0.90)"/>
  <rect x="620" y="468" width="110" height="72" fill="rgba(20,20,18,0.87)"/>
  <rect x="780" y="468" width="110" height="72" fill="rgba(22,22,20,0.83)"/>
  <rect x="940" y="468" width="110" height="72" fill="rgba(18,18,16,0.90)"/>
  <rect x="1100" y="468" width="110" height="72" fill="rgba(20,20,18,0.85)"/>
  <rect x="1220" y="468" width="52" height="72" fill="rgba(22,22,20,0.80)"/>

  <!-- RANGÉE 6 -->
  <rect x="300" y="548" width="110" height="72" fill="rgba(18,18,16,0.88)"/>
  <rect x="460" y="548" width="110" height="72" fill="rgba(20,20,18,0.84)"/>
  <rect x="620" y="548" width="110" height="72" fill="rgba(22,22,20,0.90)"/>
  <rect x="780" y="548" width="110" height="72" fill="rgba(18,18,16,0.86)"/>
  <rect x="940" y="548" width="110" height="72" fill="rgba(20,20,18,0.88)"/>
  <rect x="1100" y="548" width="110" height="72" fill="rgba(22,22,20,0.84)"/>
  <rect x="1220" y="548" width="52" height="72" fill="rgba(18,18,16,0.80)"/>

  <!-- RANGÉE 7 -->
  <rect x="300" y="628" width="110" height="72" fill="rgba(20,20,18,0.86)"/>
  <rect x="460" y="628" width="110" height="72" fill="rgba(22,22,20,0.88)"/>
  <rect x="620" y="628" width="110" height="72" fill="rgba(18,18,16,0.86)"/>
  <rect x="780" y="628" width="110" height="72" fill="rgba(20,20,18,0.90)"/>
  <rect x="940" y="628" width="110" height="72" fill="rgba(22,22,20,0.84)"/>
  <rect x="1100" y="628" width="110" height="72" fill="rgba(18,18,16,0.88)"/>
  <rect x="1220" y="628" width="52" height="72" fill="rgba(20,20,18,0.82)"/>

  <!-- RANGÉE 8 -->
  <rect x="300" y="708" width="110" height="72" fill="rgba(22,22,20,0.87)"/>
  <rect x="460" y="708" width="110" height="72" fill="rgba(18,18,16,0.90)"/>
  <rect x="620" y="708" width="110" height="72" fill="rgba(20,20,18,0.85)"/>
  <rect x="780" y="708" width="110" height="72" fill="rgba(22,22,20,0.88)"/>
  <rect x="940" y="708" width="110" height="72" fill="rgba(18,18,16,0.86)"/>
  <rect x="1100" y="708" width="110" height="72" fill="rgba(20,20,18,0.89)"/>
  <rect x="1220" y="708" width="52" height="72" fill="rgba(22,22,20,0.80)"/>

  <!-- RANGÉE 9 -->
  <rect x="300" y="788" width="110" height="72" fill="rgba(18,18,16,0.88)"/>
  <rect x="460" y="788" width="110" height="72" fill="rgba(20,20,18,0.86)"/>
  <rect x="620" y="788" width="110" height="72" fill="rgba(22,22,20,0.90)"/>
  <rect x="780" y="788" width="110" height="72" fill="rgba(18,18,16,0.84)"/>
  <rect x="940" y="788" width="110" height="72" fill="rgba(20,20,18,0.88)"/>
  <rect x="1100" y="788" width="110" height="72" fill="rgba(22,22,20,0.86)"/>
  <rect x="1220" y="788" width="52" height="72" fill="rgba(18,18,16,0.82)"/>

  <!-- RANGÉE 10 -->
  <rect x="300" y="868" width="110" height="60" fill="rgba(20,20,18,0.86)"/>
  <rect x="460" y="868" width="110" height="60" fill="rgba(22,22,20,0.84)"/>
  <rect x="620" y="868" width="110" height="60" fill="rgba(18,18,16,0.88)"/>
  <rect x="780" y="868" width="110" height="60" fill="rgba(20,20,18,0.85)"/>
  <rect x="940" y="868" width="110" height="60" fill="rgba(22,22,20,0.87)"/>
  <rect x="1100" y="868" width="110" height="60" fill="rgba(18,18,16,0.84)"/>
  <rect x="1220" y="868" width="52" height="60" fill="rgba(20,20,18,0.80)"/>

  <!-- ombre portée facade principale (droite) -->
  <rect x="1260" y="80" width="50" height="920" fill="rgba(0,0,0,0.25)"/>

  <!-- AILE GAUCHE (recul) -->
  <rect x="80" y="220" width="200" height="780" fill="#8A8680"/>
  <!-- joints aile gauche -->
  <rect x="80" y="268" width="200" height="2" fill="rgba(0,0,0,0.15)"/>
  <rect x="80" y="348" width="200" height="2" fill="rgba(0,0,0,0.12)"/>
  <rect x="80" y="428" width="200" height="2" fill="rgba(0,0,0,0.15)"/>
  <rect x="80" y="508" width="200" height="2" fill="rgba(0,0,0,0.12)"/>
  <rect x="80" y="588" width="200" height="2" fill="rgba(0,0,0,0.15)"/>
  <rect x="80" y="668" width="200" height="2" fill="rgba(0,0,0,0.12)"/>
  <rect x="80" y="748" width="200" height="2" fill="rgba(0,0,0,0.15)"/>
  <rect x="80" y="828" width="200" height="2" fill="rgba(0,0,0,0.12)"/>
  <rect x="80" y="908" width="200" height="2" fill="rgba(0,0,0,0.15)"/>
  <!-- fenêtres aile gauche -->
  <rect x="100" y="238" width="70" height="52" fill="rgba(16,16,14,0.85)"/>
  <rect x="188" y="238" width="70" height="52" fill="rgba(18,18,16,0.82)"/>
  <rect x="100" y="318" width="70" height="52" fill="rgba(16,16,14,0.88)"/>
  <rect x="188" y="318" width="70" height="52" fill="rgba(18,18,16,0.84)"/>
  <rect x="100" y="398" width="70" height="52" fill="rgba(16,16,14,0.85)"/>
  <rect x="188" y="398" width="70" height="52" fill="rgba(18,18,16,0.82)"/>
  <rect x="100" y="478" width="70" height="52" fill="rgba(16,16,14,0.88)"/>
  <rect x="188" y="478" width="70" height="52" fill="rgba(18,18,16,0.85)"/>
  <rect x="100" y="558" width="70" height="52" fill="rgba(16,16,14,0.82)"/>
  <rect x="188" y="558" width="70" height="52" fill="rgba(18,18,16,0.88)"/>
  <rect x="100" y="638" width="70" height="52" fill="rgba(16,16,14,0.85)"/>
  <rect x="188" y="638" width="70" height="52" fill="rgba(18,18,16,0.82)"/>
  <rect x="100" y="718" width="70" height="52" fill="rgba(16,16,14,0.88)"/>
  <rect x="188" y="718" width="70" height="52" fill="rgba(18,18,16,0.84)"/>
  <rect x="100" y="798" width="70" height="52" fill="rgba(16,16,14,0.85)"/>
  <rect x="188" y="798" width="70" height="52" fill="rgba(18,18,16,0.82)"/>
  <rect x="100" y="878" width="70" height="45" fill="rgba(16,16,14,0.88)"/>
  <rect x="188" y="878" width="70" height="45" fill="rgba(18,18,16,0.84)"/>
  <!-- ombre aile gauche (bas) -->
  <rect x="260" y="220" width="18" height="780" fill="rgba(0,0,0,0.28)"/>

  <!-- AILE DROITE (recul) -->
  <rect x="1310" y="280" width="250" height="720" fill="#868280"/>
  <!-- joints aile droite -->
  <rect x="1310" y="330" width="250" height="2" fill="rgba(0,0,0,0.14)"/>
  <rect x="1310" y="410" width="250" height="2" fill="rgba(0,0,0,0.12)"/>
  <rect x="1310" y="490" width="250" height="2" fill="rgba(0,0,0,0.14)"/>
  <rect x="1310" y="570" width="250" height="2" fill="rgba(0,0,0,0.12)"/>
  <rect x="1310" y="650" width="250" height="2" fill="rgba(0,0,0,0.14)"/>
  <rect x="1310" y="730" width="250" height="2" fill="rgba(0,0,0,0.12)"/>
  <rect x="1310" y="810" width="250" height="2" fill="rgba(0,0,0,0.14)"/>
  <rect x="1310" y="890" width="250" height="2" fill="rgba(0,0,0,0.12)"/>
  <!-- fenêtres aile droite -->
  <rect x="1332" y="298" width="82" height="52" fill="rgba(18,18,16,0.84)"/>
  <rect x="1432" y="298" width="82" height="52" fill="rgba(16,16,14,0.86)"/>
  <rect x="1332" y="378" width="82" height="52" fill="rgba(18,18,16,0.82)"/>
  <rect x="1432" y="378" width="82" height="52" fill="rgba(16,16,14,0.88)"/>
  <rect x="1332" y="458" width="82" height="52" fill="rgba(18,18,16,0.85)"/>
  <rect x="1432" y="458" width="82" height="52" fill="rgba(16,16,14,0.83)"/>
  <rect x="1332" y="538" width="82" height="52" fill="rgba(18,18,16,0.84)"/>
  <rect x="1432" y="538" width="82" height="52" fill="rgba(16,16,14,0.86)"/>
  <rect x="1332" y="618" width="82" height="52" fill="rgba(18,18,16,0.82)"/>
  <rect x="1432" y="618" width="82" height="52" fill="rgba(16,16,14,0.88)"/>
  <rect x="1332" y="698" width="82" height="52" fill="rgba(18,18,16,0.85)"/>
  <rect x="1432" y="698" width="82" height="52" fill="rgba(16,16,14,0.82)"/>
  <rect x="1332" y="778" width="82" height="52" fill="rgba(18,18,16,0.84)"/>
  <rect x="1432" y="778" width="82" height="52" fill="rgba(16,16,14,0.86)"/>
  <rect x="1332" y="858" width="82" height="45" fill="rgba(18,18,16,0.82)"/>
  <rect x="1432" y="858" width="82" height="45" fill="rgba(16,16,14,0.84)"/>

  <!-- SOL / PARVIS -->
  <rect x="0" y="1000" width="1920" height="80" fill="url(#ground-grad)"/>
  <!-- lignes parvis -->
  <line x1="0" y1="1015" x2="1920" y2="1015" stroke="rgba(0,0,0,0.2)" stroke-width="2"/>
  <line x1="0" y1="1035" x2="1920" y2="1035" stroke="rgba(0,0,0,0.15)" stroke-width="1"/>
  <!-- fissure parvis -->
  <path d="M400 1000 Q450 1010 480 1030 Q500 1045 520 1050" stroke="rgba(0,0,0,0.25)" stroke-width="1.5" fill="none"/>
  <path d="M900 1000 Q940 1012 960 1030" stroke="rgba(0,0,0,0.2)" stroke-width="1.2" fill="none"/>

  <!-- ombre sol sous bâtiment -->
  <rect x="80" y="995" width="1480" height="12" fill="rgba(0,0,0,0.35)" rx="2"/>

  <!-- grain photographique global -->
  <rect width="1920" height="1080" filter="url(#hero-grain)" opacity="0.55"/>

  <!-- vignettage dramatique -->
  <rect width="1920" height="1080" fill="url(#vignette)"/>

  <!-- voile sombre bas pour lisibilité du texte -->
  <linearGradient id="text-fog" x1="0" y1="0" x2="0" y2="1">
    <stop offset="50%" stop-color="transparent"/>
    <stop offset="100%" stop-color="rgba(8,8,8,0.55)"/>
  </linearGradient>
  <rect width="1920" height="1080" fill="url(#text-fog)"/>
</svg>
