<svg viewBox="0 0 400 500" xmlns="http://www.w3.org/2000/svg">
  <defs>
    <filter id="grain-a">
      <feTurbulence type="fractalNoise" baseFrequency="0.75" numOctaves="4" seed="2"/>
      <feColorMatrix type="matrix" values="0 0 0 0 0  0 0 0 0 0  0 0 0 0 0  0 0 0 0.18 0"/>
      <feComposite in2="SourceGraphic" operator="over"/>
    </filter>
    <filter id="contrast-a">
      <feComponentTransfer>
        <feFuncR type="linear" slope="1.4" intercept="-0.18"/>
        <feFuncG type="linear" slope="1.4" intercept="-0.18"/>
        <feFuncB type="linear" slope="1.4" intercept="-0.18"/>
      </feComponentTransfer>
    </filter>
    <clipPath id="frame-a"><rect width="400" height="500"/></clipPath>
  </defs>
  <g clip-path="url(#frame-a)">
    <!-- fond béton foncé -->
    <rect width="400" height="500" fill="#181818"/>
    <!-- hachures béton -->
    <line x1="0" y1="125" x2="400" y2="125" stroke="#242424" stroke-width="1"/>
    <line x1="0" y1="250" x2="400" y2="250" stroke="#242424" stroke-width="1"/>
    <line x1="0" y1="375" x2="400" y2="375" stroke="#242424" stroke-width="1"/>
    <line x1="100" y1="0" x2="100" y2="500" stroke="#212121" stroke-width="1"/>
    <line x1="200" y1="0" x2="200" y2="500" stroke="#212121" stroke-width="1"/>
    <line x1="300" y1="0" x2="300" y2="500" stroke="#212121" stroke-width="1"/>
    <!-- silhouette : cou + épaules -->
    <path d="M40 500 L40 390 Q80 330 140 310 L140 280 Q170 270 200 270 Q230 270 260 280 L260 310 Q320 330 360 390 L360 500 Z" fill="#D0CCC4"/>
    <!-- chemise / col costume -->
    <path d="M160 310 L200 350 L240 310 L260 280 L200 300 L140 280 Z" fill="#E8E4DF"/>
    <!-- cravate -->
    <path d="M195 310 L200 350 L205 310 L202 285 Z" fill="#2A2A2A"/>
    <!-- tête -->
    <ellipse cx="200" cy="190" rx="72" ry="82" fill="#D4D0C8"/>
    <!-- cheveux courts -->
    <path d="M128 178 Q130 105 200 105 Q270 105 272 178 L260 165 Q240 120 200 118 Q160 120 140 165 Z" fill="#1A1A1A"/>
    <!-- oreille gauche -->
    <ellipse cx="129" cy="198" rx="10" ry="16" fill="#C8C4BC"/>
    <!-- oreille droite -->
    <ellipse cx="271" cy="198" rx="10" ry="16" fill="#C8C4BC"/>
    <!-- yeux -->
    <ellipse cx="175" cy="196" rx="10" ry="6" fill="#1A1A1A"/>
    <ellipse cx="225" cy="196" rx="10" ry="6" fill="#1A1A1A"/>
    <!-- nez -->
    <path d="M197 208 Q192 228 185 234 Q200 240 215 234 Q208 228 203 208 Z" fill="#C0BCB4"/>
    <!-- bouche -->
    <path d="M183 252 Q200 262 217 252" stroke="#1A1A1A" stroke-width="2.5" fill="none" stroke-linecap="round"/>
    <!-- grain photo argentique -->
    <rect width="400" height="500" fill="url(#grain-a)" filter="url(#grain-a)" opacity="0.35"/>
    <!-- vignettage -->
    <radialGradient id="vign-a" cx="50%" cy="50%" r="70%">
      <stop offset="60%" stop-color="transparent"/>
      <stop offset="100%" stop-color="rgba(0,0,0,0.65)"/>
    </radialGradient>
    <rect width="400" height="500" fill="url(#vign-a)"/>
  </g>
</svg>
